<svg width="758" height="83" viewBox="0 0 758 83" fill="none" xmlns="http://www.w3.org/2000/svg">
<path d="M67.8018 3.26514C68.9063 3.26514 69.8018 4.16057 69.8018 5.26514V21.8325C69.8018 22.9371 68.9063 23.8325 67.8018 23.8325H64.6094C63.7631 23.8325 63.0081 23.2998 62.7246 22.5024C61.3575 18.6574 59.8723 16.2408 58.4141 14.9556L58.4111 14.9536C57.0544 13.7535 54.9744 13.0084 51.8779 13.0083H31.4629V34.2642H48.8916C52.0737 34.2642 53.6726 33.509 54.4209 32.605L54.582 32.396C55.3734 31.2987 55.9326 29.4081 55.9326 26.394C55.9327 25.2896 56.8281 24.394 57.9326 24.394H61.4365C62.541 24.3941 63.4364 25.2896 63.4365 26.394V52.2925C63.4365 53.397 62.541 54.2924 61.4365 54.2925H57.9326C56.8503 54.2925 55.9635 53.431 55.9326 52.3491C55.862 49.8774 55.6207 48.1007 55.2705 46.939V46.938C54.9852 45.9991 54.4576 45.336 53.6328 44.8579L53.625 44.854L54.6357 43.1274L53.625 44.853C52.8054 44.3733 51.3179 44.0073 48.8916 44.0073H31.4629V64.7124C31.4629 65.9145 31.5465 66.8273 31.6846 67.4878C31.8257 68.163 31.9912 68.4122 32.0303 68.4595C32.0544 68.4829 32.2157 68.6246 32.7178 68.7583C33.2537 68.901 34.0319 68.9956 35.1025 68.9956H52.085C55.4884 68.9956 58.173 68.4463 60.2285 67.4556C62.3529 66.4209 64.0833 64.9912 65.4551 63.1606C66.92 61.1885 68.4818 58.5597 70.1387 55.2358L70.2061 55.1118C70.5638 54.5054 71.2177 54.1284 71.9287 54.1284H75.3291C75.9572 54.1285 76.5489 54.4235 76.9268 54.9253C77.3046 55.4273 77.4249 56.0783 77.251 56.6821L71.3203 77.272C71.0736 78.1285 70.2898 78.7183 69.3984 78.7183H4C2.89543 78.7183 2 77.8228 2 76.7183V73.3179C2 72.2324 2.86603 71.3455 3.95117 71.3188C6.6248 71.2533 8.52387 70.9957 9.74805 70.6206C10.6884 70.3268 11.3957 69.7403 11.915 68.7114C12.4508 67.6398 12.8242 65.7525 12.8242 62.8052V19.1782C12.8242 16.1405 12.4664 14.238 11.9668 13.2095C11.4954 12.2392 10.826 11.6748 9.88477 11.3872L9.87305 11.3833C8.6447 10.9994 6.70613 10.7355 3.94824 10.6646C2.86422 10.6365 2 9.74995 2 8.66553V5.26514C2 4.16057 2.89543 3.26514 4 3.26514H67.8018Z" fill="#FAF3E3" stroke="#713520" stroke-width="4" stroke-linejoin="round"/>
<path d="M204.29 76.7183C204.29 77.8227 203.394 78.7181 202.29 78.7183H166.729C165.624 78.718 164.729 77.8227 164.729 76.7183V73.3179C164.729 72.2134 165.624 71.3181 166.729 71.3179H167.268C169.412 71.3179 170.571 71.0588 171.07 70.7983C171.24 70.7099 171.295 70.6331 171.324 70.5815C171.36 70.5174 171.427 70.3584 171.427 70.021C171.427 69.908 171.346 69.445 170.824 68.4976V68.4966C170.346 67.6447 169.22 66.0924 167.318 63.7622L156.707 50.8257L146.39 62.6362C144.257 65.1163 142.881 66.8173 142.197 67.7905L142.192 67.7983C141.594 68.6417 141.441 69.2325 141.441 69.606C141.441 70.0369 141.529 70.2597 141.595 70.3706C141.652 70.4672 141.758 70.5879 142.012 70.7085C142.786 71.056 144.227 71.3179 146.554 71.3179C147.658 71.3179 148.554 72.2133 148.554 73.3179V76.7183C148.554 77.8228 147.658 78.7182 146.554 78.7183H118.955C117.851 78.7183 116.955 77.8228 116.955 76.7183V73.3179C116.955 72.3074 117.709 71.4555 118.712 71.3325C121.869 70.9455 124.735 69.8753 127.33 68.1167C130.02 66.2908 132.959 63.6094 136.139 60.0093L150.742 43.3237L133.552 22.0317V22.0308C129.879 17.5235 127.044 14.5608 125.019 13.0122V13.0112C123.088 11.5394 121.043 10.7797 118.849 10.6626C117.787 10.6059 116.955 9.72869 116.955 8.66553V5.26514C116.955 4.16057 117.851 3.26514 118.955 3.26514H154.848C155.952 3.26514 156.848 4.16057 156.848 5.26514V8.66553C156.848 9.7701 155.952 10.6655 154.848 10.6655H154.205C152.265 10.6655 151.122 10.9367 150.53 11.2534C150.264 11.3958 150.167 11.517 150.129 11.5776C150.095 11.6323 150.047 11.7367 150.047 11.9624C150.047 12.0535 150.107 12.4534 150.562 13.2671C150.94 13.9422 151.515 14.7716 152.315 15.7622L152.672 16.1968L152.689 16.2192L163.092 29.0532L172.35 18.6958L172.357 18.688C175 15.763 176.523 13.9497 177.067 13.1382C177.581 12.364 177.688 11.8789 177.688 11.6304C177.688 11.3238 177.63 11.2038 177.617 11.1812C177.611 11.1694 177.606 11.1623 177.598 11.1548C177.589 11.1462 177.562 11.1243 177.504 11.0952C177.38 11.0329 177.016 10.9081 176.268 10.811C175.553 10.7183 174.612 10.6655 173.427 10.6655H172.783C171.679 10.6653 170.783 9.76997 170.783 8.66553V5.26514C170.783 4.16069 171.679 3.26534 172.783 3.26514H199.014C200.118 3.26519 201.014 4.1606 201.014 5.26514V8.66553C201.014 9.75201 200.146 10.6403 199.06 10.6655C196.232 10.7312 193.901 11.4005 191.989 12.5991L191.987 12.6011C189.984 13.8534 187.134 16.4674 183.394 20.6206L169.346 36.4331L189.956 62.0913L189.963 62.0991V62.1001C194.827 68.2182 199.016 70.9856 202.486 71.3276C203.51 71.4287 204.29 72.2894 204.29 73.3179V76.7183Z" fill="#FAF3E3" stroke="#713520" stroke-width="4" stroke-linejoin="round"/>
<path d="M277.447 12.7808C275.771 12.7808 274.214 13.0132 272.771 13.4644V36.4253C274.943 37.2676 276.962 37.6646 278.837 37.6646C282.168 37.6645 284.865 36.4826 287.066 34.0825C289.278 31.6562 290.418 28.6379 290.418 24.9009C290.418 21.1155 289.252 18.2458 287.042 16.0913C284.852 13.961 281.738 12.7808 277.447 12.7808ZM284.134 76.7183C284.134 77.8227 283.238 78.7181 282.134 78.7183H244.852C243.747 78.7183 242.852 77.8228 242.852 76.7183V73.3179C242.852 72.231 243.72 71.3425 244.807 71.3179C247.722 71.2517 249.752 70.9922 251.017 70.6138C251.998 70.3134 252.7 69.7245 253.2 68.7173L253.202 68.7114C253.738 67.6398 254.11 65.7525 254.11 62.8052V18.3286C254.11 14.8922 253.365 13.0988 252.469 12.2671L252.467 12.2642C251.491 11.3545 249.618 10.6656 246.345 10.6655H244.852C243.747 10.6655 242.852 9.7701 242.852 8.66553V5.26514C242.852 4.16057 243.747 3.26514 244.852 3.26514H282.341C286.681 3.26514 291.006 4.02224 295.306 5.50928H295.307C299.44 6.92891 302.956 9.13784 305.824 12.1323L306.389 12.7417L306.392 12.7446C309.488 16.2063 310.985 20.5604 310.985 25.6479C310.985 29.8674 309.825 33.7403 307.522 37.2222L307.52 37.2261C305.221 40.6827 302.076 43.3804 298.139 45.3325L298.14 45.3335C294.187 47.2984 289.824 48.2583 285.099 48.2583C282.375 48.2583 279.67 47.8976 276.988 47.1733V47.1724C275.502 46.7746 274.096 46.2863 272.771 45.7065V62.8052C272.771 65.8434 273.156 67.7517 273.705 68.8062C274.238 69.8295 274.953 70.3974 275.908 70.6646C277.208 71.0138 279.262 71.2518 282.179 71.3179C283.265 71.3425 284.134 72.231 284.134 73.3179V76.7183Z" fill="#FAF3E3" stroke="#713520" stroke-width="4" stroke-linejoin="round"/>
<path d="M388.498 12.7808C385.838 12.7808 383.613 13.07 381.789 13.6001V37.354H388.809C393.077 37.354 396.416 36.1527 398.992 33.8745L398.994 33.8716C401.525 31.6416 402.837 28.6588 402.837 24.6938C402.837 21.1078 401.623 18.3145 399.237 16.1343L399.235 16.1333C396.901 13.9966 393.419 12.7808 388.498 12.7808ZM438.375 76.7183C438.375 77.8228 437.48 78.7183 436.375 78.7183H413.649C413.06 78.7183 412.5 78.458 412.12 78.0073L385.868 46.8696H381.789V62.8052C381.789 65.8357 382.173 67.7043 382.705 68.7085L382.807 68.8853C383.327 69.7448 384.063 70.3042 385.111 70.6069C386.493 70.9919 388.703 71.2517 391.837 71.3179C392.925 71.3409 393.795 72.2298 393.795 73.3179V76.7183C393.795 77.8227 392.899 78.7181 391.795 78.7183H353.352C352.247 78.7183 351.352 77.8228 351.352 76.7183V73.3179C351.352 72.2133 352.247 71.3179 353.352 71.3179C356.496 71.3179 358.658 71.0883 359.974 70.7114L360.166 70.6519C361.11 70.3349 361.763 69.758 362.218 68.8413L362.221 68.8364C362.754 67.7698 363.129 65.8459 363.129 62.8052V18.0171C363.129 14.6177 362.313 12.96 361.354 12.2173L361.353 12.2153C360.16 11.2899 358.166 10.6655 355.052 10.6655H353.352C352.247 10.6655 351.352 9.7701 351.352 8.66553V5.26514C351.352 4.16057 352.247 3.26514 353.352 3.26514H395.817C403.238 3.26516 409.662 4.81217 414.989 8.0083L415.508 8.32959C420.779 11.7092 423.404 16.8789 423.404 23.5327C423.404 28.7587 421.459 33.3788 417.689 37.3306L417.69 37.3315C414.662 40.515 410.954 42.7966 406.608 44.189L425.169 66.0728L425.175 66.0806C427.013 68.2685 428.499 69.4601 429.625 69.9497H429.626C430.885 70.4976 433.138 70.9894 436.571 71.3276C437.595 71.4285 438.375 72.2893 438.375 73.3179V76.7183Z" fill="#FAF3E3" stroke="#713520" stroke-width="4" stroke-linejoin="round"/>
<path d="M543.384 3.26514C544.488 3.26514 545.384 4.16057 545.384 5.26514V21.8325C545.384 22.9371 544.488 23.8325 543.384 23.8325H540.191C539.345 23.8325 538.59 23.2998 538.307 22.5024C536.94 18.6574 535.454 16.2408 533.996 14.9556L533.993 14.9536C532.636 13.7535 530.556 13.0084 527.46 13.0083H507.045V34.2642H524.474C527.656 34.2642 529.255 33.509 530.003 32.605L530.164 32.396C530.955 31.2987 531.515 29.4081 531.515 26.394C531.515 25.2896 532.41 24.394 533.515 24.394H537.019C538.123 24.3941 539.018 25.2896 539.019 26.394V52.2925C539.019 53.397 538.123 54.2924 537.019 54.2925H533.515C532.432 54.2925 531.546 53.431 531.515 52.3491C531.444 49.8774 531.203 48.1007 530.853 46.939V46.938C530.567 45.9991 530.04 45.336 529.215 44.8579L529.207 44.854L530.218 43.1274L529.207 44.853C528.387 44.3733 526.9 44.0073 524.474 44.0073H507.045V64.7124C507.045 65.9145 507.129 66.8273 507.267 67.4878C507.408 68.163 507.573 68.4122 507.612 68.4595C507.636 68.4829 507.798 68.6246 508.3 68.7583C508.836 68.901 509.614 68.9956 510.685 68.9956H527.667C531.07 68.9956 533.755 68.4463 535.811 67.4556C537.935 66.4209 539.665 64.9912 541.037 63.1606C542.502 61.1885 544.064 58.5597 545.721 55.2358L545.788 55.1118C546.146 54.5054 546.8 54.1284 547.511 54.1284H550.911C551.539 54.1285 552.131 54.4235 552.509 54.9253C552.887 55.4273 553.007 56.0783 552.833 56.6821L546.902 77.272C546.656 78.1285 545.872 78.7183 544.98 78.7183H479.582C478.477 78.7183 477.582 77.8228 477.582 76.7183V73.3179C477.582 72.2324 478.448 71.3455 479.533 71.3188C482.207 71.2533 484.106 70.9957 485.33 70.6206C486.27 70.3268 486.978 69.7403 487.497 68.7114C488.033 67.6398 488.406 65.7525 488.406 62.8052V19.1782C488.406 16.1405 488.048 14.238 487.549 13.2095C487.077 12.2392 486.408 11.6748 485.467 11.3872L485.455 11.3833C484.227 10.9994 482.288 10.7355 479.53 10.6646C478.446 10.6365 477.582 9.74995 477.582 8.66553V5.26514C477.582 4.16057 478.477 3.26514 479.582 3.26514H543.384Z" fill="#FAF3E3" stroke="#713520" stroke-width="4" stroke-linejoin="round"/>
<path d="M647.31 2C648.414 2 649.31 2.89543 649.31 4V27.2441C649.31 28.3487 648.414 29.2441 647.31 29.2441H644.013C643.194 29.2441 642.457 28.745 642.154 27.9844C640.066 22.7443 637.126 18.6393 633.362 15.5908L633.008 15.3096C629.349 12.4515 625.632 11.1006 621.826 11.1006C618.97 11.1006 616.907 11.7989 615.437 12.9951L615.436 12.9961C614.028 14.14 613.313 15.6325 613.313 17.6855C613.314 19.1836 613.742 20.4287 614.588 21.5107L614.964 21.9678C615.876 23.0217 617.023 23.9884 618.426 24.8623H618.425C620.12 25.911 622.608 27.2729 625.917 28.9609C626.845 29.4018 628.096 30.0304 629.664 30.8457L631.365 31.7373L631.366 31.7383C636.224 34.3086 640.173 36.6971 643.183 38.9004L643.185 38.9023C646.291 41.1821 648.807 43.911 650.723 47.0918C652.705 50.3817 653.664 54.1922 653.664 58.4502C653.664 62.6542 652.548 66.4961 650.31 69.9141L650.307 69.918C648.08 73.2975 645.043 75.9451 641.243 77.8594L641.244 77.8604C637.444 79.7803 633.259 80.7295 628.73 80.7295C625.905 80.7295 623.267 80.4466 620.83 79.8672C618.496 79.3198 615.883 78.5533 612.999 77.5498C612.986 77.5453 612.973 77.54 612.96 77.5352C611.472 76.9825 610.245 76.5801 609.267 76.3184C608.259 76.0488 607.629 75.96 607.291 75.96C606.393 75.96 605.602 76.2326 604.856 76.8184C604.852 76.8217 604.847 76.8258 604.843 76.8291C604.145 77.368 603.704 78.0659 603.506 79.0293C603.314 79.9588 602.496 80.626 601.547 80.626H598.146C597.042 80.626 596.147 79.7304 596.146 78.626V53.7852C596.146 52.6806 597.042 51.7852 598.146 51.7852H601.547L601.7 51.791C602.46 51.8492 603.128 52.3367 603.409 53.0547C605.631 58.7182 608.796 63.1415 612.87 66.4033L613.254 66.7041C617.23 69.7604 621.31 71.2139 625.538 71.2139C628.68 71.2138 631.109 70.3488 632.981 68.7344L633.32 68.4277C634.959 66.8746 635.751 65.0061 635.751 62.7012C635.751 60.6046 635.2 58.8926 634.165 57.4727L634.157 57.4619C633.021 55.8814 631.497 54.45 629.552 53.1826C627.489 51.8476 624.502 50.1259 620.571 48.0215H620.57C617.471 46.408 615.486 45.3466 614.761 44.8945C608.965 41.6728 604.454 38.4348 601.324 35.1562L601.322 35.1553C597.991 31.6589 596.375 27.2303 596.375 22.04C596.375 18.3107 597.455 14.8778 599.589 11.7812L599.59 11.7793C601.718 8.69707 604.639 6.30247 608.28 4.57715L608.282 4.57617C611.939 2.84936 616.01 2 620.458 2C623.106 2.00003 625.524 2.22734 627.702 2.68457C629.526 3.05974 631.467 3.54666 633.521 4.14453L634.409 4.40723L634.486 4.43262C635.456 4.76858 636.457 5.04907 637.485 5.2832L637.856 5.36328C638.697 5.53487 639.369 5.6084 639.887 5.6084C640.459 5.60834 640.767 5.45627 640.979 5.2666L641.073 5.17383C641.302 4.92183 641.609 4.41246 641.882 3.45215L641.934 3.29492C642.225 2.52129 642.968 2 643.806 2H647.31Z" fill="#FAF3E3" stroke="#713520" stroke-width="4" stroke-linejoin="round"/>
<path d="M749.646 2C750.75 2 751.646 2.89543 751.646 4V27.2441C751.645 28.3487 750.75 29.2441 749.646 29.2441H746.349C745.53 29.2441 744.793 28.745 744.49 27.9844C742.402 22.7443 739.462 18.6393 735.698 15.5908L735.344 15.3096C731.685 12.4515 727.968 11.1006 724.162 11.1006C721.306 11.1006 719.243 11.7989 717.772 12.9951L717.771 12.9961C716.364 14.14 715.649 15.6325 715.649 17.6855C715.649 19.1836 716.078 20.4287 716.924 21.5107L717.3 21.9678C718.212 23.0217 719.359 23.9884 720.762 24.8623H720.761C722.456 25.911 724.944 27.2729 728.253 28.9609C729.181 29.4018 730.432 30.0304 732 30.8457L733.701 31.7373L733.702 31.7383C738.56 34.3086 742.509 36.6971 745.519 38.9004L745.521 38.9023C748.627 41.1821 751.143 43.911 753.059 47.0918C755.041 50.3817 756 54.1922 756 58.4502C756 62.6542 754.884 66.4961 752.646 69.9141L752.643 69.918C750.416 73.2975 747.379 75.9451 743.579 77.8594L743.58 77.8604C739.78 79.7803 735.595 80.7295 731.066 80.7295C728.241 80.7295 725.603 80.4466 723.166 79.8672C720.832 79.3198 718.219 78.5533 715.335 77.5498C715.322 77.5453 715.309 77.54 715.296 77.5352C713.808 76.9825 712.581 76.5801 711.603 76.3184C710.595 76.0488 709.965 75.96 709.627 75.96C708.729 75.96 707.938 76.2326 707.192 76.8184C707.188 76.8217 707.183 76.8258 707.179 76.8291C706.481 77.368 706.04 78.0659 705.842 79.0293C705.65 79.9588 704.832 80.626 703.883 80.626H700.482C699.378 80.626 698.483 79.7304 698.482 78.626V53.7852C698.482 52.6806 699.378 51.7852 700.482 51.7852H703.883L704.036 51.791C704.796 51.8492 705.463 52.3367 705.745 53.0547C707.967 58.7182 711.131 63.1415 715.206 66.4033L715.59 66.7041C719.566 69.7604 723.646 71.2139 727.874 71.2139C731.016 71.2138 733.445 70.3488 735.317 68.7344L735.656 68.4277C737.295 66.8746 738.087 65.0061 738.087 62.7012C738.087 60.6046 737.536 58.8926 736.501 57.4727L736.493 57.4619C735.356 55.8814 733.833 54.45 731.888 53.1826C729.825 51.8476 726.838 50.1259 722.907 48.0215H722.906C719.807 46.408 717.822 45.3466 717.097 44.8945C711.3 41.6728 706.79 38.4348 703.66 35.1562L703.658 35.1553C700.327 31.6589 698.711 27.2303 698.711 22.04C698.711 18.3107 699.791 14.8778 701.925 11.7812L701.926 11.7793C704.054 8.69707 706.974 6.30247 710.616 4.57715L710.618 4.57617C714.275 2.84936 718.346 2 722.794 2C725.441 2.00003 727.86 2.22734 730.038 2.68457C731.862 3.05974 733.803 3.54666 735.857 4.14453L736.745 4.40723L736.822 4.43262C737.792 4.76858 738.793 5.04907 739.821 5.2832L740.192 5.36328C741.033 5.53487 741.705 5.6084 742.223 5.6084C742.795 5.60834 743.103 5.45627 743.315 5.2666L743.409 5.17383C743.638 4.92183 743.945 4.41246 744.218 3.45215L744.27 3.29492C744.561 2.52129 745.304 2 746.142 2H749.646Z" fill="#FAF3E3" stroke="#713520" stroke-width="4" stroke-linejoin="round"/>
</svg>
