<svg width="800" height="187" viewBox="0 0 800 187" fill="none" xmlns="http://www.w3.org/2000/svg">
<path d="M92.6403 4.80465C86.0781 4.98665 81.0239 5.78222 77.4776 7.19658C73.9261 8.61094 71.4874 10.9197 70.1562 14.1228C68.8251 17.3155 68.1595 21.8393 68.1595 27.7047V80.6807H145.367V27.9543C145.367 21.3973 144.608 16.4731 143.1 13.1868C141.586 9.90049 139.189 7.73216 135.903 6.67659C132.627 5.61063 127.885 4.98665 121.676 4.80465V0H213.776V4.80465C206.506 4.98665 201.099 5.65223 197.552 6.80139C194.001 7.95575 191.51 10.1293 190.085 13.3324C188.671 16.5251 187.964 21.3141 187.964 27.7047V154.955C187.964 161.694 188.801 166.707 190.481 169.993C192.17 173.279 194.609 175.417 197.802 176.399C201.005 177.372 205.622 177.949 211.654 178.126V182.91H121.676V178.126C128.233 177.949 133.157 177.325 136.444 176.254C139.73 175.188 142.039 173.061 143.37 169.868C144.701 166.665 145.367 161.876 145.367 155.496V92.1204H68.1595V155.226C68.1595 161.965 68.9967 166.936 70.6762 170.139C72.3662 173.331 74.8569 175.417 78.1432 176.399C81.4295 177.372 86.2601 177.949 92.6403 178.126V182.91H5.05424V178.126C12.8592 178.126 18.2254 176.394 21.1529 172.926C24.0909 169.463 25.5624 163.473 25.5624 154.955V27.9543C25.5624 21.3973 24.8032 16.5251 23.2953 13.3324C21.7821 10.1293 19.2498 7.95575 15.7035 6.80139C12.152 5.65223 6.91579 4.98665 0 4.80465V0H92.6403V4.80465Z" fill="#713520"/>
<path d="M284.058 56.4495C299.325 56.4495 310.505 59.559 317.608 65.7676C324.705 71.9814 328.257 79.8799 328.257 89.458V155.226C328.257 164.991 330.737 169.868 335.703 169.868C337.128 169.868 338.329 169.473 339.301 168.683C340.284 167.882 341.392 166.499 342.629 164.544L345.021 166.936C342.536 172.967 338.636 177.762 333.311 181.308C327.986 184.854 322.043 186.633 315.486 186.633C308.731 186.633 303.266 184.948 299.096 181.578C294.936 178.209 292.492 173.238 291.775 166.665C290.719 167.372 289.123 168.615 286.991 170.388C280.777 175.547 275.01 179.55 269.686 182.39C264.361 185.218 258.236 186.633 251.32 186.633C244.399 186.633 238.58 184.147 233.869 179.186C229.169 174.21 226.818 168.173 226.818 161.07C226.818 151.851 230.853 143.599 238.924 136.319C247.004 129.039 255.839 123.184 265.422 118.744L291.775 105.973V81.7415C291.775 77.306 290.402 73.5361 287.656 70.4266C284.911 67.3223 280.605 65.7676 274.74 65.7676C269.592 65.7676 265.287 66.8387 261.824 68.9707C258.371 71.0922 256.645 73.6661 256.645 76.6872C256.645 77.7584 256.946 78.8244 257.56 79.8903C258.184 80.9459 258.938 82.0067 259.827 83.0726C261.434 85.0278 262.682 86.8945 263.571 88.6677C264.455 90.446 264.902 92.4843 264.902 94.7827C264.902 99.0413 263.3 102.499 260.097 105.162C256.905 107.824 252.74 109.155 247.597 109.155C241.908 109.155 237.291 107.652 233.745 104.642C230.193 101.62 228.42 97.627 228.42 92.6611C228.42 86.2705 230.947 80.2803 236.012 74.6905C241.071 69.1059 247.857 64.6652 256.374 61.3789C264.886 58.0926 274.116 56.4495 284.058 56.4495ZM263.03 149.631C263.03 153.889 264.226 157.347 266.628 160.009C269.025 162.672 272.083 164.003 275.801 164.003C278.822 164.003 281.531 163.478 283.933 162.422C286.331 161.356 288.946 159.666 291.775 157.347V115.291C272.608 125.056 263.03 136.501 263.03 149.631Z" fill="#713520"/>
<path d="M437.681 56.4495C445.845 56.4495 452.636 58.4462 458.044 62.4397C463.452 66.4332 466.956 71.9814 468.568 79.0792C473.529 71.7994 479.384 66.2148 486.123 62.3149C492.872 58.4046 499.892 56.4495 507.172 56.4495C517.639 56.4495 525.621 59.7358 531.112 66.3084C536.613 72.8706 539.369 80.8575 539.369 90.2692V164.003C539.369 168.095 540.295 171.428 542.156 174.007C544.028 176.576 547.008 177.949 551.1 178.126V182.91H491.447V178.126C496.065 177.949 499.128 176.748 500.641 174.527C502.149 172.312 502.908 168.36 502.908 162.672V87.3365C502.908 84.4974 502.102 81.5231 500.495 78.4136C498.899 75.3093 496.153 73.7545 492.259 73.7545C488.525 73.7545 485.062 74.9557 481.859 77.3528C478.666 79.7551 474.943 83.967 470.69 89.9988V162.152C470.69 171.735 474.501 177.06 482.129 178.126V182.91H423.038V178.126C430.485 177.242 434.208 171.647 434.208 161.341V88.6677C434.208 84.5806 433.318 81.1175 431.545 78.2888C429.767 75.4497 426.845 74.0249 422.768 74.0249C415.847 74.0249 408.926 79.3496 402.01 89.9988V161.881C402.01 171.647 405.91 177.06 413.72 178.126V182.91H353.277V178.126C357.531 177.585 360.64 176.124 362.595 173.737C364.551 171.34 365.528 167.118 365.528 161.07V82.0119C365.528 75.6213 364.457 71.1442 362.325 68.5755C360.204 65.9964 357.188 64.53 353.277 64.166V59.3822H402.01V76.6872H402.53C408.032 69.5895 413.621 64.4468 419.295 61.2541C424.978 58.051 431.109 56.4495 437.681 56.4495Z" fill="#713520"/>
<path d="M667.42 63.1054L603.524 174.652H621.911C631.837 174.652 640.173 171.772 646.912 166C653.661 160.233 658.46 152.023 661.305 141.373H665.569L661.305 182.91H558.535L623.492 67.6397H600.342C592.173 67.6397 586.136 69.73 582.226 73.9003C578.326 78.0601 575.05 85.1111 572.388 95.0532H567.583V59.3823H667.42V63.1054Z" fill="#713520"/>
<path d="M739.037 56.4495C754.303 56.4495 765.483 59.559 772.586 65.7676C779.684 71.9814 783.235 79.8799 783.235 89.458V155.226C783.235 164.991 785.716 169.868 790.682 169.868C792.106 169.868 793.307 169.473 794.28 168.683C795.263 167.882 796.37 166.499 797.608 164.544L800 166.936C797.514 172.967 793.614 177.762 788.29 181.308C782.965 184.854 777.022 186.633 770.465 186.633C763.71 186.633 758.245 184.948 754.075 181.578C749.915 178.209 747.471 173.238 746.753 166.665C745.698 167.372 744.101 168.615 741.969 170.388C735.756 175.547 729.989 179.55 724.664 182.39C719.34 185.218 713.214 186.633 706.299 186.633C699.378 186.633 693.559 184.147 688.848 179.186C684.147 174.21 681.797 168.173 681.797 161.07C681.797 151.851 685.832 143.599 693.902 136.319C701.983 129.039 710.817 123.184 720.4 118.744L746.753 105.973V81.7415C746.753 77.306 745.381 73.5361 742.635 70.4266C739.889 67.3223 735.584 65.7676 729.719 65.7676C724.571 65.7676 720.265 66.8387 716.802 68.9707C713.35 71.0922 711.623 73.6661 711.623 76.6872C711.623 77.7584 711.925 78.8244 712.538 79.8903C713.162 80.9459 713.916 82.0067 714.805 83.0726C716.412 85.0278 717.66 86.8945 718.549 88.6677C719.433 90.446 719.88 92.4843 719.88 94.7827C719.88 99.0413 718.279 102.499 715.076 105.162C711.883 107.824 707.718 109.155 702.575 109.155C696.887 109.155 692.269 107.652 688.723 104.642C685.172 101.62 683.398 97.627 683.398 92.6611C683.398 86.2705 685.926 80.2803 690.99 74.6905C696.05 69.1059 702.835 64.6652 711.353 61.3789C719.865 58.0926 729.095 56.4495 739.037 56.4495ZM718.009 149.631C718.009 153.889 719.205 157.347 721.607 160.009C724.004 162.672 727.061 164.003 730.779 164.003C733.8 164.003 736.51 163.478 738.912 162.422C741.309 161.356 743.925 159.666 746.753 157.347V115.291C727.587 125.056 718.009 136.501 718.009 149.631Z" fill="#713520"/>
</svg>
