<svg width="800" height="301" viewBox="0 0 800 301" fill="none" xmlns="http://www.w3.org/2000/svg">
<path d="M92.6403 4.80465C86.0781 4.98665 81.0239 5.78222 77.4776 7.19658C73.9261 8.61094 71.4874 10.9197 70.1562 14.1228C68.8251 17.3155 68.1595 21.8393 68.1595 27.7047V80.6807H145.367V27.9543C145.367 21.3973 144.608 16.4731 143.1 13.1868C141.586 9.90049 139.189 7.73216 135.903 6.67659C132.627 5.61063 127.885 4.98665 121.676 4.80465V0H213.776V4.80465C206.506 4.98665 201.099 5.65223 197.552 6.80139C194.001 7.95575 191.51 10.1293 190.085 13.3324C188.671 16.5251 187.964 21.3141 187.964 27.7047V154.955C187.964 161.694 188.801 166.707 190.481 169.993C192.17 173.279 194.609 175.417 197.802 176.399C201.005 177.372 205.622 177.949 211.654 178.126V182.91H121.676V178.126C128.233 177.949 133.157 177.325 136.444 176.254C139.73 175.188 142.039 173.061 143.37 169.868C144.701 166.665 145.367 161.876 145.367 155.496V92.1204H68.1595V155.226C68.1595 161.965 68.9967 166.936 70.6762 170.139C72.3662 173.331 74.8569 175.417 78.1432 176.399C81.4295 177.372 86.2601 177.949 92.6403 178.126V182.91H5.05424V178.126C12.8592 178.126 18.2254 176.394 21.1529 172.926C24.0909 169.463 25.5624 163.473 25.5624 154.955V27.9543C25.5624 21.3973 24.8032 16.5251 23.2953 13.3324C21.7821 10.1293 19.2498 7.95575 15.7035 6.80139C12.152 5.65223 6.91579 4.98665 0 4.80465V0H92.6403V4.80465Z" fill="#D2B48C"/>
<path d="M284.058 56.4495C299.325 56.4495 310.505 59.559 317.608 65.7676C324.705 71.9814 328.257 79.8799 328.257 89.458V155.226C328.257 164.991 330.737 169.868 335.703 169.868C337.128 169.868 338.329 169.473 339.301 168.683C340.284 167.882 341.392 166.499 342.629 164.544L345.021 166.936C342.536 172.967 338.636 177.762 333.311 181.308C327.986 184.854 322.043 186.633 315.486 186.633C308.731 186.633 303.266 184.948 299.096 181.578C294.936 178.209 292.492 173.238 291.775 166.665C290.719 167.372 289.123 168.615 286.991 170.388C280.777 175.547 275.01 179.55 269.686 182.39C264.361 185.218 258.236 186.633 251.32 186.633C244.399 186.633 238.58 184.147 233.869 179.186C229.169 174.21 226.818 168.173 226.818 161.07C226.818 151.851 230.853 143.599 238.924 136.319C247.004 129.039 255.839 123.184 265.422 118.744L291.775 105.973V81.7415C291.775 77.306 290.402 73.5361 287.656 70.4266C284.911 67.3223 280.605 65.7676 274.74 65.7676C269.592 65.7676 265.287 66.8387 261.824 68.9707C258.371 71.0922 256.645 73.6661 256.645 76.6872C256.645 77.7584 256.946 78.8244 257.56 79.8903C258.184 80.9459 258.938 82.0067 259.827 83.0726C261.434 85.0278 262.682 86.8945 263.571 88.6677C264.455 90.446 264.902 92.4843 264.902 94.7827C264.902 99.0413 263.3 102.499 260.097 105.162C256.905 107.824 252.74 109.155 247.597 109.155C241.908 109.155 237.291 107.652 233.745 104.642C230.193 101.62 228.42 97.627 228.42 92.6611C228.42 86.2705 230.947 80.2803 236.012 74.6905C241.071 69.1059 247.857 64.6652 256.374 61.3789C264.886 58.0926 274.116 56.4495 284.058 56.4495ZM263.03 149.631C263.03 153.889 264.226 157.347 266.628 160.009C269.025 162.672 272.083 164.003 275.801 164.003C278.822 164.003 281.531 163.478 283.933 162.422C286.331 161.356 288.946 159.666 291.775 157.347V115.291C272.608 125.056 263.03 136.501 263.03 149.631Z" fill="#D2B48C"/>
<path d="M437.681 56.4495C445.845 56.4495 452.636 58.4462 458.044 62.4397C463.452 66.4332 466.956 71.9814 468.568 79.0792C473.529 71.7994 479.384 66.2148 486.123 62.3149C492.872 58.4046 499.892 56.4495 507.172 56.4495C517.639 56.4495 525.621 59.7358 531.112 66.3084C536.613 72.8706 539.369 80.8575 539.369 90.2692V164.003C539.369 168.095 540.295 171.428 542.156 174.007C544.028 176.576 547.008 177.949 551.1 178.126V182.91H491.447V178.126C496.065 177.949 499.128 176.748 500.641 174.527C502.149 172.312 502.908 168.36 502.908 162.672V87.3365C502.908 84.4974 502.102 81.5231 500.495 78.4136C498.899 75.3093 496.153 73.7545 492.259 73.7545C488.525 73.7545 485.062 74.9557 481.859 77.3528C478.666 79.7551 474.943 83.967 470.69 89.9988V162.152C470.69 171.735 474.501 177.06 482.129 178.126V182.91H423.038V178.126C430.485 177.242 434.208 171.647 434.208 161.341V88.6677C434.208 84.5806 433.318 81.1175 431.545 78.2888C429.767 75.4497 426.845 74.0249 422.768 74.0249C415.847 74.0249 408.926 79.3496 402.01 89.9988V161.881C402.01 171.647 405.91 177.06 413.72 178.126V182.91H353.277V178.126C357.531 177.585 360.64 176.124 362.595 173.737C364.551 171.34 365.528 167.118 365.528 161.07V82.0119C365.528 75.6213 364.457 71.1442 362.325 68.5755C360.204 65.9964 357.188 64.53 353.277 64.166V59.3822H402.01V76.6872H402.53C408.032 69.5895 413.621 64.4468 419.295 61.2541C424.978 58.051 431.109 56.4495 437.681 56.4495Z" fill="#D2B48C"/>
<path d="M667.42 63.1054L603.524 174.652H621.911C631.837 174.652 640.173 171.772 646.912 166C653.661 160.233 658.46 152.023 661.305 141.373H665.569L661.305 182.91H558.535L623.492 67.6397H600.342C592.173 67.6397 586.136 69.73 582.226 73.9003C578.326 78.0601 575.05 85.1111 572.388 95.0532H567.583V59.3823H667.42V63.1054Z" fill="#D2B48C"/>
<path d="M739.037 56.4495C754.303 56.4495 765.483 59.559 772.586 65.7676C779.684 71.9814 783.235 79.8799 783.235 89.458V155.226C783.235 164.991 785.716 169.868 790.682 169.868C792.106 169.868 793.307 169.473 794.28 168.683C795.263 167.882 796.37 166.499 797.608 164.544L800 166.936C797.514 172.967 793.614 177.762 788.29 181.308C782.965 184.854 777.022 186.633 770.465 186.633C763.71 186.633 758.245 184.948 754.075 181.578C749.915 178.209 747.471 173.238 746.753 166.665C745.698 167.372 744.101 168.615 741.969 170.388C735.756 175.547 729.989 179.55 724.664 182.39C719.34 185.218 713.214 186.633 706.299 186.633C699.378 186.633 693.559 184.147 688.848 179.186C684.147 174.21 681.797 168.173 681.797 161.07C681.797 151.851 685.832 143.599 693.902 136.319C701.983 129.039 710.817 123.184 720.4 118.744L746.753 105.973V81.7415C746.753 77.306 745.381 73.5361 742.635 70.4266C739.889 67.3223 735.584 65.7676 729.719 65.7676C724.571 65.7676 720.265 66.8387 716.802 68.9707C713.35 71.0922 711.623 73.6661 711.623 76.6872C711.623 77.7584 711.925 78.8244 712.538 79.8903C713.162 80.9459 713.916 82.0067 714.805 83.0726C716.412 85.0278 717.66 86.8945 718.549 88.6677C719.433 90.446 719.88 92.4843 719.88 94.7827C719.88 99.0413 718.279 102.499 715.076 105.162C711.883 107.824 707.718 109.155 702.575 109.155C696.887 109.155 692.269 107.652 688.723 104.642C685.172 101.62 683.398 97.627 683.398 92.6611C683.398 86.2705 685.926 80.2803 690.99 74.6905C696.05 69.1059 702.835 64.6652 711.353 61.3789C719.865 58.0926 729.095 56.4495 739.037 56.4495ZM718.009 149.631C718.009 153.889 719.205 157.347 721.607 160.009C724.004 162.672 727.061 164.003 730.779 164.003C733.8 164.003 736.51 163.478 738.912 162.422C741.309 161.356 743.925 159.666 746.753 157.347V115.291C727.587 125.056 718.009 136.501 718.009 149.631Z" fill="#D2B48C"/>
<path d="M88.8018 221.265C89.9063 221.265 90.8018 222.161 90.8018 223.265V239.833C90.8018 240.937 89.9063 241.833 88.8018 241.833H85.6094C84.7631 241.833 84.0081 241.3 83.7246 240.502C82.3575 236.657 80.8723 234.241 79.4141 232.956L79.4111 232.954C78.0544 231.754 75.9744 231.008 72.8779 231.008H52.4629V252.264H69.8916C73.0737 252.264 74.6726 251.509 75.4209 250.605L75.582 250.396C76.3734 249.299 76.9326 247.408 76.9326 244.394C76.9327 243.29 77.8281 242.394 78.9326 242.394H82.4365C83.541 242.394 84.4364 243.29 84.4365 244.394V270.292C84.4365 271.397 83.541 272.292 82.4365 272.292H78.9326C77.8503 272.292 76.9635 271.431 76.9326 270.349C76.862 267.877 76.6207 266.101 76.2705 264.939V264.938C75.9852 263.999 75.4576 263.336 74.6328 262.858L74.625 262.854L75.6357 261.127L74.625 262.853C73.8054 262.373 72.3179 262.007 69.8916 262.007H52.4629V282.712C52.4629 283.914 52.5465 284.827 52.6846 285.488C52.8257 286.163 52.9912 286.412 53.0303 286.459C53.0544 286.483 53.2157 286.625 53.7178 286.758C54.2537 286.901 55.0319 286.996 56.1025 286.996H73.085C76.4884 286.996 79.173 286.446 81.2285 285.456C83.3529 284.421 85.0833 282.991 86.4551 281.161C87.92 279.188 89.4818 276.56 91.1387 273.236L91.2061 273.112C91.5638 272.505 92.2177 272.128 92.9287 272.128H96.3291C96.9572 272.128 97.5489 272.424 97.9268 272.925C98.3046 273.427 98.4249 274.078 98.251 274.682L92.3203 295.272C92.0736 296.128 91.2898 296.718 90.3984 296.718H25C23.8954 296.718 23 295.823 23 294.718V291.318C23 290.232 23.866 289.345 24.9512 289.319C27.6248 289.253 29.5239 288.996 30.748 288.621C31.6884 288.327 32.3957 287.74 32.915 286.711C33.4508 285.64 33.8242 283.753 33.8242 280.805V237.178C33.8242 234.14 33.4664 232.238 32.9668 231.209C32.4954 230.239 31.826 229.675 30.8848 229.387L30.873 229.383C29.6447 228.999 27.7061 228.736 24.9482 228.665C23.8642 228.636 23 227.75 23 226.666V223.265C23 222.161 23.8954 221.265 25 221.265H88.8018Z" fill="#FAF3E3" stroke="#D2B48C" stroke-width="4" stroke-linejoin="round"/>
<path d="M225.29 294.718C225.29 295.823 224.394 296.718 223.29 296.718H187.729C186.624 296.718 185.729 295.823 185.729 294.718V291.318C185.729 290.213 186.624 289.318 187.729 289.318H188.268C190.412 289.318 191.571 289.059 192.07 288.798C192.24 288.71 192.295 288.633 192.324 288.582C192.36 288.517 192.427 288.358 192.427 288.021C192.427 287.908 192.346 287.445 191.824 286.498V286.497C191.346 285.645 190.22 284.092 188.318 281.762L177.707 268.826L167.39 280.636C165.257 283.116 163.881 284.817 163.197 285.791L163.192 285.798C162.594 286.642 162.441 287.232 162.441 287.606C162.441 288.037 162.529 288.26 162.595 288.371C162.652 288.467 162.758 288.588 163.012 288.708C163.786 289.056 165.227 289.318 167.554 289.318C168.658 289.318 169.554 290.213 169.554 291.318V294.718C169.554 295.823 168.658 296.718 167.554 296.718H139.955C138.851 296.718 137.955 295.823 137.955 294.718V291.318C137.955 290.307 138.709 289.455 139.712 289.333C142.869 288.946 145.735 287.875 148.33 286.117C151.02 284.291 153.959 281.609 157.139 278.009L171.742 261.324L154.552 240.032V240.031C150.879 235.523 148.044 232.561 146.019 231.012V231.011C144.088 229.539 142.043 228.78 139.849 228.663C138.787 228.606 137.955 227.729 137.955 226.666V223.265C137.955 222.161 138.851 221.265 139.955 221.265H175.848C176.952 221.265 177.848 222.161 177.848 223.265V226.666C177.848 227.77 176.952 228.666 175.848 228.666H175.205C173.265 228.666 172.122 228.937 171.53 229.253C171.264 229.396 171.167 229.517 171.129 229.578C171.095 229.632 171.047 229.737 171.047 229.962C171.047 230.053 171.107 230.453 171.562 231.267C171.94 231.942 172.515 232.772 173.315 233.762L173.672 234.197L173.689 234.219L184.092 247.053L193.35 236.696L193.357 236.688C196 233.763 197.523 231.95 198.067 231.138C198.581 230.364 198.688 229.879 198.688 229.63C198.688 229.324 198.63 229.204 198.617 229.181C198.611 229.169 198.606 229.162 198.598 229.155C198.589 229.146 198.562 229.124 198.504 229.095C198.38 229.033 198.016 228.908 197.268 228.811C196.553 228.718 195.612 228.666 194.427 228.666H193.783C192.679 228.665 191.783 227.77 191.783 226.666V223.265C191.783 222.161 192.679 221.265 193.783 221.265H220.014C221.118 221.265 222.014 222.161 222.014 223.265V226.666C222.014 227.752 221.146 228.64 220.06 228.666C217.232 228.731 214.901 229.4 212.989 230.599L212.987 230.601C210.984 231.853 208.134 234.467 204.394 238.621L190.346 254.433L210.956 280.091L210.963 280.099V280.1C215.827 286.218 220.016 288.986 223.486 289.328C224.51 289.429 225.29 290.289 225.29 291.318V294.718Z" fill="#FAF3E3" stroke="#D2B48C" stroke-width="4" stroke-linejoin="round"/>
<path d="M298.447 230.781C296.771 230.781 295.214 231.013 293.771 231.464V254.425C295.943 255.268 297.962 255.665 299.837 255.665C303.168 255.664 305.865 254.483 308.066 252.083C310.278 249.656 311.418 246.638 311.418 242.901C311.418 239.115 310.252 236.246 308.042 234.091C305.852 231.961 302.738 230.781 298.447 230.781ZM305.134 294.718C305.134 295.823 304.238 296.718 303.134 296.718H265.852C264.747 296.718 263.852 295.823 263.852 294.718V291.318C263.852 290.231 264.72 289.343 265.807 289.318C268.722 289.252 270.752 288.992 272.017 288.614C272.998 288.313 273.7 287.725 274.2 286.717L274.202 286.711C274.738 285.64 275.11 283.752 275.11 280.805V236.329C275.11 232.892 274.365 231.099 273.469 230.267L273.467 230.264C272.491 229.354 270.618 228.666 267.345 228.666H265.852C264.747 228.666 263.852 227.77 263.852 226.666V223.265C263.852 222.161 264.747 221.265 265.852 221.265H303.341C307.681 221.265 312.006 222.022 316.306 223.509H316.307C320.44 224.929 323.956 227.138 326.824 230.132L327.389 230.742L327.392 230.745C330.488 234.206 331.985 238.56 331.985 243.648C331.985 247.867 330.825 251.74 328.522 255.222L328.52 255.226C326.221 258.683 323.076 261.38 319.139 263.333L319.14 263.333C315.187 265.298 310.824 266.258 306.099 266.258C303.375 266.258 300.67 265.898 297.988 265.173V265.172C296.502 264.775 295.096 264.286 293.771 263.707V280.805C293.771 283.843 294.156 285.752 294.705 286.806C295.238 287.83 295.953 288.397 296.908 288.665C298.208 289.014 300.262 289.252 303.179 289.318C304.265 289.342 305.134 290.231 305.134 291.318V294.718Z" fill="#FAF3E3" stroke="#D2B48C" stroke-width="4" stroke-linejoin="round"/>
<path d="M409.498 230.781C406.838 230.781 404.613 231.07 402.789 231.6V255.354H409.809C414.077 255.354 417.416 254.153 419.992 251.875L419.994 251.872C422.525 249.642 423.837 246.659 423.837 242.694C423.837 239.108 422.623 236.314 420.237 234.134L420.235 234.133C417.901 231.997 414.419 230.781 409.498 230.781ZM459.375 294.718C459.375 295.823 458.48 296.718 457.375 296.718H434.649C434.06 296.718 433.5 296.458 433.12 296.007L406.868 264.87H402.789V280.805C402.789 283.836 403.173 285.704 403.705 286.708L403.807 286.885C404.327 287.745 405.063 288.304 406.111 288.607C407.493 288.992 409.703 289.252 412.837 289.318C413.925 289.341 414.795 290.23 414.795 291.318V294.718C414.795 295.823 413.899 296.718 412.795 296.718H374.352C373.247 296.718 372.352 295.823 372.352 294.718V291.318C372.352 290.213 373.247 289.318 374.352 289.318C377.496 289.318 379.658 289.088 380.974 288.711L381.166 288.652C382.11 288.335 382.763 287.758 383.218 286.841L383.221 286.836C383.754 285.77 384.129 283.846 384.129 280.805V236.017C384.129 232.618 383.313 230.96 382.354 230.217L382.353 230.215C381.16 229.29 379.166 228.666 376.052 228.666H374.352C373.247 228.666 372.352 227.77 372.352 226.666V223.265C372.352 222.161 373.247 221.265 374.352 221.265H416.817C424.238 221.265 430.662 222.812 435.989 226.008L436.508 226.33C441.779 229.709 444.404 234.879 444.404 241.533C444.404 246.759 442.459 251.379 438.689 255.331L438.69 255.332C435.662 258.515 431.954 260.797 427.608 262.189L446.169 284.073L446.175 284.081C448.013 286.268 449.499 287.46 450.625 287.95H450.626C451.885 288.498 454.138 288.989 457.571 289.328C458.595 289.428 459.375 290.289 459.375 291.318V294.718Z" fill="#FAF3E3" stroke="#D2B48C" stroke-width="4" stroke-linejoin="round"/>
<path d="M564.384 221.265C565.488 221.265 566.384 222.161 566.384 223.265V239.833C566.384 240.937 565.488 241.833 564.384 241.833H561.191C560.345 241.833 559.59 241.3 559.307 240.502C557.94 236.657 556.454 234.241 554.996 232.956L554.993 232.954C553.636 231.754 551.556 231.008 548.46 231.008H528.045V252.264H545.474C548.656 252.264 550.255 251.509 551.003 250.605L551.164 250.396C551.955 249.299 552.515 247.408 552.515 244.394C552.515 243.29 553.41 242.394 554.515 242.394H558.019C559.123 242.394 560.018 243.29 560.019 244.394V270.292C560.019 271.397 559.123 272.292 558.019 272.292H554.515C553.432 272.292 552.546 271.431 552.515 270.349C552.444 267.877 552.203 266.101 551.853 264.939V264.938C551.567 263.999 551.04 263.336 550.215 262.858L550.207 262.854L551.218 261.127L550.207 262.853C549.387 262.373 547.9 262.007 545.474 262.007H528.045V282.712C528.045 283.914 528.129 284.827 528.267 285.488C528.408 286.163 528.573 286.412 528.612 286.459C528.636 286.483 528.798 286.625 529.3 286.758C529.836 286.901 530.614 286.996 531.685 286.996H548.667C552.07 286.996 554.755 286.446 556.811 285.456C558.935 284.421 560.665 282.991 562.037 281.161C563.502 279.188 565.064 276.56 566.721 273.236L566.788 273.112C567.146 272.505 567.8 272.128 568.511 272.128H571.911C572.539 272.128 573.131 272.424 573.509 272.925C573.887 273.427 574.007 274.078 573.833 274.682L567.902 295.272C567.656 296.128 566.872 296.718 565.98 296.718H500.582C499.477 296.718 498.582 295.823 498.582 294.718V291.318C498.582 290.232 499.448 289.345 500.533 289.319C503.207 289.253 505.106 288.996 506.33 288.621C507.27 288.327 507.978 287.74 508.497 286.711C509.033 285.64 509.406 283.753 509.406 280.805V237.178C509.406 234.14 509.048 232.238 508.549 231.209C508.077 230.239 507.408 229.675 506.467 229.387L506.455 229.383C505.227 228.999 503.288 228.736 500.53 228.665C499.446 228.636 498.582 227.75 498.582 226.666V223.265C498.582 222.161 499.477 221.265 500.582 221.265H564.384Z" fill="#FAF3E3" stroke="#D2B48C" stroke-width="4" stroke-linejoin="round"/>
<path d="M668.31 220C669.414 220 670.31 220.895 670.31 222V245.244C670.31 246.349 669.414 247.244 668.31 247.244H665.013C664.194 247.244 663.457 246.745 663.154 245.984C661.066 240.744 658.126 236.639 654.362 233.591L654.008 233.31C650.349 230.452 646.632 229.101 642.826 229.101C639.97 229.101 637.907 229.799 636.437 230.995L636.436 230.996C635.028 232.14 634.313 233.632 634.313 235.686C634.314 237.184 634.742 238.429 635.588 239.511L635.964 239.968C636.876 241.022 638.023 241.988 639.426 242.862H639.425C641.12 243.911 643.608 245.273 646.917 246.961C647.845 247.402 649.096 248.03 650.664 248.846L652.365 249.737L652.366 249.738C657.224 252.309 661.173 254.697 664.183 256.9L664.185 256.902C667.291 259.182 669.807 261.911 671.723 265.092C673.705 268.382 674.664 272.192 674.664 276.45C674.664 280.654 673.548 284.496 671.31 287.914L671.307 287.918C669.08 291.298 666.043 293.945 662.243 295.859L662.244 295.86C658.444 297.78 654.259 298.729 649.73 298.729C646.905 298.729 644.267 298.447 641.83 297.867C639.496 297.32 636.883 296.553 633.999 295.55C633.986 295.545 633.973 295.54 633.96 295.535C632.472 294.982 631.245 294.58 630.267 294.318C629.259 294.049 628.629 293.96 628.291 293.96C627.393 293.96 626.602 294.233 625.856 294.818C625.852 294.822 625.847 294.826 625.843 294.829C625.145 295.368 624.704 296.066 624.506 297.029C624.314 297.959 623.496 298.626 622.547 298.626H619.146C618.042 298.626 617.147 297.73 617.146 296.626V271.785C617.146 270.681 618.042 269.785 619.146 269.785H622.547L622.7 269.791C623.46 269.849 624.128 270.337 624.409 271.055C626.631 276.718 629.796 281.142 633.87 284.403L634.254 284.704C638.23 287.76 642.31 289.214 646.538 289.214C649.68 289.214 652.109 288.349 653.981 286.734L654.32 286.428C655.959 284.875 656.751 283.006 656.751 280.701C656.751 278.605 656.2 276.893 655.165 275.473L655.157 275.462C654.021 273.881 652.497 272.45 650.552 271.183C648.489 269.848 645.502 268.126 641.571 266.021H641.57C638.471 264.408 636.486 263.347 635.761 262.895C629.965 259.673 625.454 256.435 622.324 253.156L622.322 253.155C618.991 249.659 617.375 245.23 617.375 240.04C617.375 236.311 618.455 232.878 620.589 229.781L620.59 229.779C622.718 226.697 625.639 224.302 629.28 222.577L629.282 222.576C632.939 220.849 637.01 220 641.458 220C644.106 220 646.524 220.227 648.702 220.685C650.526 221.06 652.467 221.547 654.521 222.145L655.409 222.407L655.486 222.433C656.456 222.769 657.457 223.049 658.485 223.283L658.856 223.363C659.697 223.535 660.369 223.608 660.887 223.608C661.459 223.608 661.767 223.456 661.979 223.267L662.073 223.174C662.302 222.922 662.609 222.412 662.882 221.452L662.934 221.295C663.225 220.521 663.968 220 664.806 220H668.31Z" fill="#FAF3E3" stroke="#D2B48C" stroke-width="4" stroke-linejoin="round"/>
<path d="M770.646 220C771.75 220 772.646 220.895 772.646 222V245.244C772.645 246.349 771.75 247.244 770.646 247.244H767.349C766.53 247.244 765.793 246.745 765.49 245.984C763.402 240.744 760.462 236.639 756.698 233.591L756.344 233.31C752.685 230.452 748.968 229.101 745.162 229.101C742.306 229.101 740.243 229.799 738.772 230.995L738.771 230.996C737.364 232.14 736.649 233.632 736.649 235.686C736.649 237.184 737.078 238.429 737.924 239.511L738.3 239.968C739.212 241.022 740.359 241.988 741.762 242.862H741.761C743.456 243.911 745.944 245.273 749.253 246.961C750.181 247.402 751.432 248.03 753 248.846L754.701 249.737L754.702 249.738C759.56 252.309 763.509 254.697 766.519 256.9L766.521 256.902C769.627 259.182 772.143 261.911 774.059 265.092C776.041 268.382 777 272.192 777 276.45C777 280.654 775.884 284.496 773.646 287.914L773.643 287.918C771.416 291.298 768.379 293.945 764.579 295.859L764.58 295.86C760.78 297.78 756.595 298.729 752.066 298.729C749.241 298.729 746.603 298.447 744.166 297.867C741.832 297.32 739.219 296.553 736.335 295.55C736.322 295.545 736.309 295.54 736.296 295.535C734.808 294.982 733.581 294.58 732.603 294.318C731.595 294.049 730.965 293.96 730.627 293.96C729.729 293.96 728.938 294.233 728.192 294.818C728.188 294.822 728.183 294.826 728.179 294.829C727.481 295.368 727.04 296.066 726.842 297.029C726.65 297.959 725.832 298.626 724.883 298.626H721.482C720.378 298.626 719.483 297.73 719.482 296.626V271.785C719.482 270.681 720.378 269.785 721.482 269.785H724.883L725.036 269.791C725.796 269.849 726.463 270.337 726.745 271.055C728.967 276.718 732.131 281.142 736.206 284.403L736.59 284.704C740.566 287.76 744.646 289.214 748.874 289.214C752.016 289.214 754.445 288.349 756.317 286.734L756.656 286.428C758.295 284.875 759.087 283.006 759.087 280.701C759.087 278.605 758.536 276.893 757.501 275.473L757.493 275.462C756.356 273.881 754.833 272.45 752.888 271.183C750.825 269.848 747.838 268.126 743.907 266.021H743.906C740.807 264.408 738.822 263.347 738.097 262.895C732.3 259.673 727.79 256.435 724.66 253.156L724.658 253.155C721.327 249.659 719.711 245.23 719.711 240.04C719.711 236.311 720.791 232.878 722.925 229.781L722.926 229.779C725.054 226.697 727.974 224.302 731.616 222.577L731.618 222.576C735.275 220.849 739.346 220 743.794 220C746.441 220 748.86 220.227 751.038 220.685C752.862 221.06 754.803 221.547 756.857 222.145L757.745 222.407L757.822 222.433C758.792 222.769 759.793 223.049 760.821 223.283L761.192 223.363C762.033 223.535 762.705 223.608 763.223 223.608C763.795 223.608 764.103 223.456 764.315 223.267L764.409 223.174C764.638 222.922 764.945 222.412 765.218 221.452L765.27 221.295C765.561 220.521 766.304 220 767.142 220H770.646Z" fill="#FAF3E3" stroke="#D2B48C" stroke-width="4" stroke-linejoin="round"/>
</svg>
